<?xml version="1.0" encoding="utf-8"?>
<!-- Generator: Adobe Illustrator 17.1.0, SVG Export Plug-In . SVG Version: 6.00 Build 0)  -->
<!DOCTYPE svg PUBLIC "-//W3C//DTD SVG 1.1//EN" "http://www.w3.org/Graphics/SVG/1.1/DTD/svg11.dtd">
<svg version="1.1" id="Layer_1" xmlns="http://www.w3.org/2000/svg" xmlns:xlink="http://www.w3.org/1999/xlink" x="0px" y="0px"
	 viewBox="337.3 177.1 349.2 417.2" enable-background="new 337.3 177.1 349.2 417.2" xml:space="preserve">
<path fill="#706F6F" d="M686,455l-67.1-141.7l66.5-129.2c0.7-1.4,0.7-3.2-0.2-4.6c-0.9-1.4-2.3-2.3-3.9-2.3H551.5h-0.2
	c-0.2,0-0.5,0-0.7,0h-0.2c-0.2,0-0.7,0.2-0.9,0.5l0,0c-0.2,0.2-0.5,0.5-0.9,0.7l-0.2,0.2c-0.2,0.2-0.2,0.5-0.5,0.7c0,0,0,0-0.2,0.2
	c0,0,0,0,0,0.2c0,0,0,0.2-0.2,0.2L409.8,447.8l-62.5-132.2c-1.2-2.3-3.9-3.2-6.3-2.3c-2.3,1.2-3.2,3.9-2.3,6.3L404.2,458
	l-66.5,129.4c-0.7,1.4-0.7,3.2,0.2,4.6s2.3,2.3,3.9,2.3h129.7l0,0l0,0c0.5,0,0.7,0,1.2-0.2c0.2,0,0.2,0,0.2-0.2
	c0.2,0,0.5-0.2,0.7-0.2c0.2,0,0.2-0.2,0.5-0.2c0.2-0.2,0.5-0.2,0.5-0.5c0.2-0.2,0.2-0.2,0.2-0.5c0-0.2,0.2-0.2,0.2-0.5v-0.2
	c0,0,0,0,0-0.2l137.5-267.9l63.9,135.2c1.2,2.3,3.9,3.2,6.3,2.3C686,460.1,687.2,457.3,686,455z M350,584.9l59.7-116.2l55.1,116.2
	H350z M472.1,579.1l-57.2-120.9l136.4-265.8l57.2,120.9L472.1,579.1z M558.9,186.6h114.6l-59.7,116.2L558.9,186.6z"/>
</svg>
