<?xml version="1.0" encoding="utf-8"?>
<!-- Generator: Adobe Illustrator 17.1.0, SVG Export Plug-In . SVG Version: 6.00 Build 0)  -->
<!DOCTYPE svg PUBLIC "-//W3C//DTD SVG 1.0//EN" "http://www.w3.org/TR/2001/REC-SVG-20010904/DTD/svg10.dtd">
<svg version="1.0" id="Layer_1" xmlns="http://www.w3.org/2000/svg" xmlns:xlink="http://www.w3.org/1999/xlink" x="0px" y="0px"
	 viewBox="0 0 325.3 331.7" enable-background="new 0 0 325.3 331.7" xml:space="preserve">
<path fill="#706F6F" d="M237.8,196.5l-29-61.2l28.7-55.8c0.3-0.6,0.3-1.4-0.1-2s-1-1-1.7-1h-56c0,0-0.1,0-0.1,0c-0.1,0-0.2,0-0.3,0
	c0,0-0.1,0-0.1,0c-0.1,0-0.3,0.1-0.4,0.2c0,0,0,0,0,0c-0.1,0.1-0.2,0.2-0.4,0.3c0,0-0.1,0.1-0.1,0.1c-0.1,0.1-0.1,0.2-0.2,0.3
	c0,0,0,0-0.1,0.1c0,0,0,0,0,0.1c0,0,0,0.1-0.1,0.1l-59.4,115.7l-27-57.1c-0.5-1-1.7-1.4-2.7-1c-1,0.5-1.4,1.7-1,2.7l28.3,59.8
	l-28.7,55.9c-0.3,0.6-0.3,1.4,0.1,2s1,1,1.7,1h56c0,0,0,0,0,0c0,0,0,0,0,0c0.2,0,0.3,0,0.5-0.1c0.1,0,0.1,0,0.1-0.1
	c0.1,0,0.2-0.1,0.3-0.1c0.1,0,0.1-0.1,0.2-0.1c0.1-0.1,0.2-0.1,0.2-0.2c0.1-0.1,0.1-0.1,0.1-0.2c0-0.1,0.1-0.1,0.1-0.2
	c0,0,0-0.1,0-0.1c0,0,0,0,0-0.1l59.4-115.7l27.6,58.4c0.5,1,1.7,1.4,2.7,1C237.8,198.7,238.3,197.5,237.8,196.5z M92.7,252.6
	l25.8-50.2l23.8,50.2H92.7z M145.4,250.1l-24.7-52.2l58.9-114.8l24.7,52.2L145.4,250.1z M182.9,80.6h49.5l-25.8,50.2L182.9,80.6z"/>
<g>
	<path fill="#706F6F" d="M162.7,306c-76.8,0-139.4-62.5-139.4-139.4S85.8,27.3,162.7,27.3c76.8,0,139.4,62.5,139.4,139.4
		S239.5,306,162.7,306z M162.7,31.3C88.1,31.3,27.3,92,27.3,166.6S88.1,302,162.7,302s135.4-60.7,135.4-135.4S237.3,31.3,162.7,31.3
		z"/>
</g>
<g>
	<g>
		<path fill="#706F6F" d="M125.1,324.8c-0.2,0-0.3,0-0.5-0.1C71.1,311.8,28.1,273.2,9.5,221.3c-8.8-24.5-11.5-50-8.2-75.6
			c3.2-24.5,12.1-48.3,25.7-68.9c0.6-0.9,1.8-1.2,2.8-0.6c0.9,0.6,1.2,1.8,0.6,2.8c-13.3,20.1-22,43.4-25.1,67.2
			c-3.3,25-0.6,49.8,8,73.7c18.1,50.6,60,88.3,112.3,100.9c1.1,0.3,1.7,1.3,1.5,2.4C126.9,324.2,126,324.8,125.1,324.8z"/>
	</g>
	<g>
		<g>
			<path fill="#706F6F" d="M293.2,262.3c-0.4,0-0.8-0.1-1.2-0.4c-0.9-0.6-1.1-1.9-0.5-2.8c30.3-42.3,38-96.9,20.5-145.8
				c-8.6-24-22.9-45.7-41.4-62.9c-17.9-16.6-39.9-29.1-63.4-36c-1.1-0.3-1.7-1.4-1.4-2.5c0.3-1.1,1.4-1.7,2.5-1.4
				c24.1,7.1,46.6,19.8,65,36.9c19,17.6,33.7,39.9,42.5,64.5c17.9,50.2,10.1,106.1-21,149.5C294.5,262,293.9,262.3,293.2,262.3z"/>
		</g>
		<g>
			<g>
				<path fill="#706F6F" d="M29.1,68.7c-0.4-0.3-0.5-0.9-0.2-1.3l2.2-2.9c0.8-1,1.7-1.6,2.6-1.7c0.8-0.1,1.6,0.1,2.3,0.7l0,0
					c1.3,1,1.5,2.4,1,3.7l3.2,0c0.3,0,0.5,0,0.7,0.2c0.4,0.3,0.4,0.8,0.1,1.2c-0.2,0.3-0.6,0.4-0.9,0.4l-4,0l-1.4,1.8l2.2,1.7
					c0.4,0.3,0.5,0.9,0.2,1.3c-0.3,0.4-0.9,0.5-1.3,0.2L29.1,68.7z M35.1,67.7c0.8-1,0.8-2.1-0.1-2.7l0,0c-0.9-0.7-1.8-0.4-2.6,0.6
					l-1.6,2.1l2.7,2.1L35.1,67.7z"/>
			</g>
			<g>
				<path fill="#706F6F" d="M44,63l-3.6-8.6c-0.2-0.5-0.1-0.9,0.2-1.3l0.1-0.1c0.3-0.4,0.8-0.4,1.3-0.3l8.8,3c0.1,0,0.3,0.1,0.3,0.2
					c0.4,0.3,0.4,0.9,0.1,1.2c-0.3,0.3-0.7,0.4-1.1,0.2l-2-0.7l-3.4,3.6l0.9,2c0.2,0.4,0.1,0.7-0.1,1c-0.3,0.3-0.8,0.4-1.2,0
					C44.2,63.3,44.1,63.2,44,63z M46.5,56.2l-4.3-1.5l1.8,4.1L46.5,56.2z"/>
			</g>
			<g>
				<path fill="#706F6F" d="M49.3,45.8c-0.3-0.4-0.3-0.9,0.1-1.3l2.2-1.9c2.4-2.1,5.5-2,7.4,0.2l0,0c1.9,2.2,1.7,5.3-0.7,7.4
					l-2.2,1.9c-0.4,0.3-0.9,0.3-1.3-0.1L49.3,45.8z M57.3,49c1.6-1.4,1.7-3.4,0.4-4.9l0,0c-1.3-1.5-3.4-1.7-5-0.2l-1.5,1.3l4.6,5.2
					L57.3,49z"/>
			</g>
			<g>
				<path fill="#706F6F" d="M65.3,42.8l-2-9.1c-0.1-0.5,0-0.9,0.4-1.2l0.1-0.1c0.4-0.3,0.9-0.3,1.3,0l8.1,4.6
					c0.1,0.1,0.2,0.2,0.3,0.2c0.3,0.4,0.2,0.9-0.2,1.2c-0.3,0.3-0.7,0.2-1.1,0l-1.8-1l-4,3l0.5,2.1c0.1,0.4,0,0.7-0.3,1
					c-0.4,0.3-0.9,0.2-1.2-0.2C65.4,43.1,65.3,43,65.3,42.8z M69,36.5l-3.9-2.3l1,4.4L69,36.5z"/>
			</g>
			<g>
				<path fill="#706F6F" d="M73.7,26.9c-0.3-0.4-0.1-1,0.3-1.2l3.1-1.9c1.1-0.7,2.2-0.9,3.1-0.6c0.8,0.2,1.4,0.7,1.9,1.5l0,0
					c0.8,1.4,0.5,2.7-0.4,3.8l3,1.1c0.3,0.1,0.5,0.2,0.6,0.4c0.3,0.4,0.1,0.9-0.3,1.2c-0.4,0.2-0.7,0.2-1,0.1l-3.8-1.4l-1.9,1.2
					l1.4,2.4c0.3,0.4,0.1,1-0.3,1.2c-0.4,0.3-1,0.1-1.2-0.3L73.7,26.9z M79.6,28.2c1.1-0.7,1.5-1.7,0.9-2.6l0,0
					c-0.6-0.9-1.6-1-2.7-0.4l-2.2,1.4l1.8,2.9L79.6,28.2z"/>
			</g>
			<g>
				<path fill="#706F6F" d="M88.7,23.2L88.7,23.2c-0.5-1-0.1-2.3,0.9-2.8c1-0.5,2.3-0.1,2.8,0.9l0,0c0.5,1,0.1,2.2-0.9,2.8
					C90.4,24.6,89.2,24.2,88.7,23.2z"/>
			</g>
			<g>
				<path fill="#706F6F" d="M98.1,18.7L98.1,18.7c-1.1-2.7,0.1-5.8,2.9-6.9c1.4-0.6,2.5-0.6,3.6-0.3c0.2,0.1,0.5,0.2,0.6,0.5
					c0.2,0.4,0,1-0.5,1.2c-0.2,0.1-0.4,0.1-0.6,0c-0.8-0.2-1.6-0.2-2.6,0.2c-1.8,0.7-2.5,2.8-1.7,4.6l0,0c0.8,2,2.6,2.9,4.6,2.1
					c0.9-0.4,1.6-1,2-1.6l-0.7-1.8l-1.9,0.8c-0.4,0.2-0.9,0-1-0.4c-0.2-0.4,0-0.9,0.5-1l2.6-1.1c0.5-0.2,1,0,1.2,0.5l1,2.5
					c0.2,0.5,0.1,0.9-0.2,1.3c-0.6,0.9-1.5,1.8-3,2.4C102,22.8,99.2,21.5,98.1,18.7z"/>
			</g>
			<g>
				<path fill="#706F6F" d="M111.8,9c-0.1-0.5,0.1-1,0.6-1.1l3.5-1c1.2-0.4,2.3-0.3,3.1,0.1c0.7,0.4,1.2,1,1.4,1.9l0,0
					c0.5,1.6-0.2,2.8-1.4,3.6l2.6,1.8c0.2,0.2,0.4,0.3,0.5,0.6c0.1,0.5-0.2,0.9-0.6,1c-0.4,0.1-0.7,0-1-0.2l-3.3-2.3l-2.2,0.6
					l0.8,2.6c0.1,0.5-0.1,1-0.6,1.1c-0.5,0.1-1-0.1-1.1-0.6L111.8,9z M117.2,11.8c1.2-0.4,1.8-1.2,1.5-2.2l0,0
					c-0.3-1.1-1.2-1.4-2.5-1l-2.5,0.7l1,3.3L117.2,11.8z"/>
			</g>
			<g>
				<path fill="#706F6F" d="M127.2,13.2l2.1-9.1c0.1-0.5,0.4-0.8,0.9-0.9l0.1,0c0.5-0.1,0.9,0.1,1.2,0.5l5.4,7.6
					c0.1,0.1,0.2,0.2,0.2,0.4c0.1,0.5-0.2,0.9-0.7,1c-0.4,0.1-0.8-0.1-1-0.4l-1.2-1.7l-4.9,1l-0.5,2.1c-0.1,0.4-0.3,0.6-0.7,0.7
					c-0.5,0.1-0.9-0.2-1-0.7C127.1,13.5,127.1,13.3,127.2,13.2z M133.2,9l-2.6-3.7l-1,4.4L133.2,9z"/>
			</g>
			<g>
				<path fill="#706F6F" d="M141.5,2.3c-0.1-0.5,0.3-0.9,0.8-1l3.1-0.3c2.4-0.3,4,0.9,4.2,3l0,0c0.2,2.3-1.5,3.7-3.7,3.9l-2,0.2
					l0.3,2.5c0.1,0.5-0.3,0.9-0.8,1c-0.5,0.1-0.9-0.3-1-0.8L141.5,2.3z M145.9,6.3c1.4-0.1,2.1-1,2-2.1l0,0
					c-0.1-1.2-1.1-1.7-2.4-1.6l-2.1,0.2l0.4,3.7L145.9,6.3z"/>
			</g>
			<g>
				<path fill="#706F6F" d="M155.6,1c0-0.5,0.4-0.9,0.9-0.9c0.5,0,0.9,0.4,0.9,0.9l0.1,3.4l4.9-0.1l-0.1-3.4c0-0.5,0.4-0.9,0.9-0.9
					c0.5,0,0.9,0.4,0.9,0.9l0.1,8.6c0,0.5-0.4,0.9-0.9,0.9c-0.5,0-0.9-0.4-0.9-0.9L162.3,6l-4.9,0.1l0.1,3.5c0,0.5-0.4,0.9-0.9,0.9
					c-0.5,0-0.9-0.4-0.9-0.9L155.6,1z"/>
			</g>
			<g>
				<path fill="#706F6F" d="M171.1,1.1c0-0.5,0.4-0.9,1-0.8c0.5,0,0.9,0.4,0.8,0.9l-0.5,8.6c0,0.5-0.4,0.9-0.9,0.8
					c-0.5,0-0.9-0.4-0.9-0.9L171.1,1.1z"/>
			</g>
			<g>
				<path fill="#706F6F" d="M178.8,6L178.8,6c0.4-2.9,2.8-5,5.9-4.6c1.6,0.2,2.5,0.8,3.3,1.6c0.2,0.2,0.3,0.4,0.3,0.8
					c-0.1,0.5-0.5,0.8-1,0.8c-0.2,0-0.4-0.1-0.5-0.2c-0.6-0.7-1.3-1.1-2.3-1.2c-1.9-0.3-3.6,1.2-3.8,3.1l0,0c-0.3,2,0.9,3.8,2.9,4
					c1.1,0.1,1.8-0.1,2.7-0.6c0.1-0.1,0.3-0.2,0.6-0.1c0.4,0.1,0.8,0.5,0.7,0.9c0,0.3-0.2,0.5-0.4,0.6c-1.1,0.7-2.2,1.1-3.9,0.9
					C180.4,11.5,178.5,8.9,178.8,6z"/>
			</g>
			<g>
				<path fill="#706F6F" d="M192.8,12.1c-0.2-0.2-0.3-0.5-0.2-0.7c0.1-0.5,0.5-0.7,1-0.6c0.2,0.1,0.4,0.2,0.5,0.3
					c0.7,0.8,1.5,1.4,2.6,1.6c1.1,0.2,1.9-0.1,2-0.9l0,0c0.2-0.7-0.2-1.2-1.9-2c-2-1-3.1-1.9-2.7-3.7l0,0c0.4-1.7,2.1-2.6,4-2.1
					c1.3,0.3,2.2,0.8,3,1.6c0.2,0.2,0.3,0.4,0.2,0.8c-0.1,0.5-0.5,0.7-1,0.6c-0.2,0-0.3-0.1-0.4-0.2c-0.7-0.7-1.3-1.1-2.1-1.3
					c-1-0.2-1.7,0.2-1.9,0.8l0,0c-0.2,0.8,0.2,1.2,2,2.1c2,1,2.9,2,2.6,3.6l0,0c-0.4,1.9-2.1,2.7-4.2,2.2
					C194.9,13.9,193.7,13.1,192.8,12.1z"/>
			</g>
		</g>
		<g>
			<g>
				<path fill="#706F6F" d="M131,327.6c-0.1-0.2-0.2-0.4-0.2-0.7c0.1-0.5,0.5-0.8,1-0.7c0.2,0,0.4,0.1,0.5,0.3
					c0.4,0.6,0.8,0.9,1.5,1.1c1,0.2,1.7-0.3,2-1.7l1-5.8c0.1-0.5,0.6-0.8,1-0.7c0.5,0.1,0.8,0.5,0.7,1l-1,5.8
					c-0.2,1.2-0.7,2-1.4,2.5c-0.7,0.5-1.6,0.6-2.6,0.5C132.3,329,131.5,328.4,131,327.6z"/>
			</g>
			<g>
				<path fill="#706F6F" d="M144.6,326.4l0.4-5.1c0-0.5,0.5-0.9,1-0.8c0.5,0,0.9,0.5,0.8,1l-0.4,5c-0.2,1.9,0.7,3,2.3,3.1
					c1.6,0.1,2.6-0.7,2.8-2.6l0.4-5.1c0-0.5,0.5-0.9,1-0.8c0.5,0,0.9,0.5,0.8,1l-0.4,5c-0.3,3-2.1,4.4-4.8,4.2
					C145.9,331,144.3,329.3,144.6,326.4z"/>
			</g>
			<g>
				<path fill="#706F6F" d="M160.4,322.3c0-0.5,0.4-0.9,0.9-0.9c0.5,0,0.9,0.4,0.9,0.9l0,7.8l4.6,0c0.5,0,0.8,0.4,0.8,0.8
					c0,0.5-0.4,0.8-0.8,0.8l-5.5,0c-0.5,0-0.9-0.4-0.9-0.9L160.4,322.3z"/>
			</g>
			<g>
				<path fill="#706F6F" d="M173.7,321.9c0-0.5,0.3-0.9,0.8-1c0.5,0,0.9,0.3,1,0.8l0.7,8.6c0,0.5-0.3,0.9-0.8,1
					c-0.5,0-0.9-0.3-1-0.8L173.7,321.9z"/>
			</g>
			<g>
				<path fill="#706F6F" d="M183.7,329.5l-1.3-8.3c-0.1-0.5,0.3-1,0.8-1l5.9-0.9c0.4-0.1,0.9,0.2,0.9,0.7c0.1,0.4-0.2,0.9-0.7,0.9
					l-5,0.8l0.4,2.6l4.4-0.7c0.4-0.1,0.9,0.2,0.9,0.7c0.1,0.4-0.2,0.8-0.7,0.9l-4.4,0.7l0.4,2.7l5.1-0.8c0.4-0.1,0.9,0.2,0.9,0.7
					c0.1,0.4-0.2,0.9-0.7,0.9l-6,0.9C184.2,330.3,183.7,330,183.7,329.5z"/>
			</g>
			<g>
				<path fill="#706F6F" d="M206.3,324.6l1.1-9.2c0.1-0.5,0.3-0.9,0.8-1l0.1,0c0.5-0.2,0.9,0,1.2,0.4l6.1,7c0.1,0.1,0.2,0.2,0.2,0.3
					c0.1,0.5-0.1,0.9-0.6,1.1c-0.4,0.1-0.8,0-1-0.3l-1.4-1.6l-4.8,1.5l-0.2,2.1c0,0.4-0.3,0.7-0.6,0.8c-0.4,0.1-0.9-0.1-1-0.5
					C206.3,324.9,206.3,324.8,206.3,324.6z M211.9,319.9l-2.9-3.4l-0.5,4.5L211.9,319.9z"/>
			</g>
			<g>
				<path fill="#706F6F" d="M219.1,311.7c-0.2-0.5,0-1,0.5-1.2l0.2-0.1c0.4-0.2,0.7-0.1,1.1,0.1l7.3,4.1l-2.4-5.8
					c-0.2-0.4,0-1,0.5-1.1c0.5-0.2,1,0,1.2,0.5l3.3,7.9c0.2,0.5,0,1-0.5,1.2l-0.1,0c-0.4,0.2-0.7,0.1-1.1-0.1l-7.5-4.2l2.5,6
					c0.2,0.4,0,1-0.5,1.1c-0.5,0.2-1,0-1.2-0.5L219.1,311.7z"/>
			</g>
			<g>
				<path fill="#706F6F" d="M236.1,304.8l-2.2,1.2c-0.4,0.2-0.9,0.1-1.1-0.3c-0.2-0.4-0.1-0.9,0.3-1.1l6-3.2
					c0.4-0.2,0.9-0.1,1.1,0.3c0.2,0.4,0.1,0.9-0.3,1.1l-2.2,1.2l3.7,6.8c0.2,0.4,0.1,1-0.4,1.2c-0.4,0.2-1,0.1-1.2-0.4L236.1,304.8z
					"/>
			</g>
			<g>
				<path fill="#706F6F" d="M246.9,302.7L246.9,302.7c-1.6-2.5-1.1-5.6,1.5-7.3c1.3-0.9,2.4-1,3.6-1c0.2,0,0.5,0.1,0.7,0.4
					c0.3,0.4,0.2,0.9-0.3,1.2c-0.2,0.1-0.4,0.2-0.5,0.2c-0.9-0.1-1.7,0-2.5,0.6c-1.6,1.1-1.9,3.2-0.8,4.9l0,0
					c1.1,1.7,3.2,2.2,4.8,1.2c0.9-0.6,1.3-1.3,1.6-2.2c0-0.2,0.2-0.3,0.3-0.5c0.4-0.2,0.9-0.1,1.2,0.2c0.2,0.2,0.2,0.5,0.1,0.7
					c-0.3,1.2-1,2.3-2.3,3.2C251.7,305.9,248.5,305.1,246.9,302.7z"/>
			</g>
			<g>
				<path fill="#706F6F" d="M262.3,297.3L262.3,297.3c-0.2-0.3-0.3-0.6-0.3-0.9l0.1-9l-4,3.2c-0.3,0.3-0.8,0.2-1.1-0.1
					c-0.3-0.3-0.2-0.9,0.1-1.1l5.2-4.2c0.3-0.3,0.9-0.2,1.1,0.1l0,0c0.2,0.2,0.3,0.5,0.3,0.9l-0.1,9.1l4.1-3.3
					c0.3-0.3,0.9-0.2,1.1,0.1c0.3,0.3,0.2,0.8-0.1,1.1l-5.4,4.3C263.1,297.7,262.6,297.6,262.3,297.3z"/>
			</g>
			<g>
				<path fill="#706F6F" d="M273.6,287.4l-3.2-8.7c-0.2-0.5-0.1-0.9,0.3-1.3l0.1-0.1c0.4-0.4,0.8-0.4,1.3-0.2l8.6,3.4
					c0.1,0,0.3,0.1,0.3,0.2c0.3,0.3,0.3,0.9,0,1.2c-0.3,0.3-0.7,0.3-1.1,0.2l-1.9-0.8l-3.6,3.5l0.8,2c0.2,0.4,0.1,0.7-0.2,1
					c-0.3,0.3-0.9,0.3-1.2,0C273.7,287.6,273.7,287.5,273.6,287.4z M276.4,280.6l-4.2-1.7l1.6,4.2L276.4,280.6z"/>
			</g>
			<g>
				<path fill="#706F6F" d="M279.1,270c-0.4-0.3-0.4-0.9-0.1-1.3c0.3-0.4,0.9-0.4,1.3-0.1l3.3,2.8l-0.6-6.9c0-0.3,0-0.5,0.2-0.8
					c0.3-0.4,0.8-0.4,1.2-0.1c0.2,0.2,0.3,0.4,0.3,0.7l0.3,4.4l5.5,0.1c0.2,0,0.4,0,0.7,0.2c0.4,0.3,0.4,0.9,0.1,1.3
					c-0.2,0.3-0.5,0.3-0.8,0.3l-5.3-0.2l0.2,2.3l1.6,1.4c0.4,0.3,0.4,0.9,0.1,1.3c-0.3,0.4-0.9,0.4-1.3,0.1L279.1,270z"/>
			</g>
		</g>
	</g>
</g>
</svg>
